<?xml version="1.0" encoding="utf-8"?>
<!-- Generator: Adobe Illustrator 24.2.0, SVG Export Plug-In . SVG Version: 6.00 Build 0)  -->
<svg version="1.1" id="Layer_1" xmlns="http://www.w3.org/2000/svg" xmlns:xlink="http://www.w3.org/1999/xlink" x="0px" y="0px"
	 viewBox="0 0 437.1 176.4" style="enable-background:new 0 0 437.1 176.4;" xml:space="preserve">
<style type="text/css">
	.st0{display:none;}
	.st1{font-family:'Luminari-Regular';}
	.st2{font-size:134.9664px;}
	.st3{fill-rule:evenodd;clip-rule:evenodd;fill:#010101;}
</style>
<g>
	<path d="M85,139.1c-0.6-1.3-1.5-3.4-2.6-6.3c-1.1-2.8-2.4-6-3.7-9.5s-2.8-7.1-4.3-10.9c-1.5-3.7-3-7.1-4.3-10.2
		c-1.5,2.6-3.4,5.8-5.5,9.5c-2.2,3.7-4.3,7.4-6.5,11.1c-2.2,3.7-4.1,7.1-5.9,10.3c-1.8,3.2-3.1,5.6-3.9,7.2
		c-0.3,0.4-0.8,0.6-1.7,0.7c-0.9,0.1-1.5,0.1-2,0.1c-1,0-1.7-0.5-2-1.6c-0.5-2.3-1.2-5.3-2.1-8.9c-0.9-3.6-1.8-7.4-3-11.5
		c-1.1-4.1-2.3-8.2-3.6-12.3c-1.3-4.1-2.6-7.9-4-11.2c-1.3-3.3-2.7-6-4.1-8.1c-1.4-2.1-2.7-3.1-4-3.1c-0.5,0-0.9,0-1.3-0.1
		c-0.4,0-0.8-0.1-1.3-0.1c-0.8,0-1.3,0-1.6,0.1c-0.4,0-0.5-0.3-0.5-0.9c0-0.2,0.1-0.5,0.4-0.9c0.5-0.4,1.8-1.1,3.6-2.1
		c1.9-1,3.9-2.1,6-3.2c2.1-1.1,4.1-2.1,5.9-3c1.8-0.9,3-1.3,3.6-1.3c1.5,0,3,1.6,4.5,4.9c1.5,3.2,2.9,7.3,4.4,12.1
		c1.4,4.9,2.9,10.1,4.3,15.8c1.4,5.7,2.9,10.9,4.3,15.8c0.8-1.2,1.7-2.6,2.8-4.4c1-1.8,2.1-3.7,3.2-5.9c1.1-2.2,2.3-4.5,3.5-6.9
		c1.2-2.4,2.4-4.9,3.6-7.3c-0.4-0.9-0.8-2-1.3-3.2c-0.5-1.2-1-2.5-1.6-3.7c-0.5-1.3-1.1-2.5-1.7-3.7c-0.6-1.2-1.1-2.2-1.7-3
		c-0.5-0.8-1.2-1.3-1.9-1.4C58.3,81.8,58,81.5,58,81c0-0.2,0.1-0.4,0.3-0.5c2.5-1.4,5.3-2.9,8.3-4.4c3-1.5,6-2.5,9-2.9
		c0.8,0.2,1.4,0.6,1.8,1.1c0.4,0.6,0.6,1.2,0.8,2c0.4,1.1,0.9,2.7,1.7,4.9c0.8,2.2,1.6,4.7,2.6,7.6c0.9,2.9,2,6,3.1,9.2
		c1.1,3.3,2.2,6.5,3.3,9.7c1.1,3.2,2.1,6.2,3.2,9c1,2.8,2,5.2,2.9,7.1c1.3-2.6,2.7-5.7,4.3-9.2c1.6-3.5,3.1-7.1,4.5-10.7
		c1.4-3.6,2.6-7.2,3.5-10.5c0.9-3.4,1.4-6.1,1.4-8.3c0-4.5-2-6.7-6.1-6.7c-1,0-2,0.1-2.9,0.3c-0.9,0.2-1.6,0.3-1.8,0.3
		c-0.3,0-0.5-0.2-0.7-0.5c-0.2-0.3-0.3-0.7-0.3-1.1c0-0.4,0.6-0.8,1.9-1.3c1.3-0.5,2.9-0.9,5-1.3c2.1-0.4,4.4-0.8,6.9-1.1
		c2.5-0.3,5.1-0.5,7.7-0.5c2,0,3.6,0.3,4.9,0.8c1.3,0.5,2.1,1.3,2.5,2.4c-0.7,2.7-1.9,5.8-3.6,9.4c-1.7,3.6-3.7,7.4-5.9,11.3
		c-2.2,4-4.6,8-7.1,12.2c-2.5,4.2-4.9,8.2-7.3,12.1c-2.3,3.9-4.5,7.5-6.4,10.8c-1.9,3.3-3.4,6.1-4.4,8.4c-0.2,0.2-0.7,0.3-1.7,0.3
		s-1.6,0-2.1,0c-0.7,0-1.1-0.2-1.2-0.5C85.7,140.3,85.4,139.8,85,139.1z"/>
	<path d="M164.5,98c-0.5-2.8-1.2-5.3-1.9-7.5c-0.7-2.2-1.6-4-2.7-5.5c-1.1-1.5-2.4-2.6-3.9-3.4c-1.5-0.8-3.4-1.1-5.7-1.1
		c-2,0-3.8,0.4-5.5,1.1c-1.7,0.7-3.1,1.6-4.3,2.6c-1.2,1-2.2,2-2.8,3c-0.7,1-1.1,1.8-1.1,2.3c-0.1,0.7-0.5,1.1-1.2,1.1
		c-1.3,0-2.4-0.4-3.5-1.3c-1.1-0.9-1.6-2-1.6-3.2c0-0.7,0.1-1.3,0.3-1.6c2.1-1.2,4.6-2.4,7.6-3.8s6.1-2.6,9.2-3.8
		c3.2-1.2,6.4-2.1,9.5-2.9c3.1-0.8,6-1.1,8.5-1.1c3.8,0,6.7,0.5,8.7,1.6c2,1.1,3.5,2.6,4.5,4.6c1,2,1.6,4.3,1.8,7
		c0.2,2.7,0.4,5.5,0.6,8.6c0.3,4.6,0.6,9,1.1,13.3c0.4,4.3,1.1,8.1,2,11.3c0.9,3.3,0.8,3.1,2.4,5c2,2.3,3.1,2,5.2,2
		c1,0,2.1-0.2,3.2-0.5c1.2-0.4,2.3-0.8,3.4-1.3c1.1-0.5,2-1,2.9-1.5c0.9-0.5,1.4-0.8,1.7-1c0.8,0,1.3,0.4,1.5,1.2
		c0,0.5-0.1,0.9-0.3,1.2c-0.2,0.2-0.9,0.6-2,1.3c-1.2,0.7-2.6,1.6-4.3,2.6c-1.7,1-3.6,2-5.7,3.2c-2.1,1.1-4.1,2.2-6.1,3.2
		c-2,1-3.9,1.8-5.6,2.4c-1.7,0.6-3.1,0.9-4,0.9c-1.2,0-2.2-0.5-3-1.4c-0.9-0.9-1.6-2.2-2.2-3.8c-0.6-1.6-1.2-2.4-1.6-4.5
		c-0.5-2.1-0.3-1.2-0.7-3.4c-1.6,1.3-3.2,2.8-5.7,4.7c-2.5,1.8-5.3,3.6-8.2,5.2c-3,1.6-6,3-9.1,4.1c-3.1,1.1-6.1,1.7-9,1.7
		c-2.4,0-4.5-0.4-6.3-1.1c-1.8-0.8-3.3-1.8-4.5-3c-1.2-1.3-2.1-2.7-2.7-4.4c-0.6-1.7-0.9-3.4-0.9-5.2c0-2.9,0.9-5.2,2.6-7.1
		c1.8-1.8,4.5-3.8,8.2-5.7c1.7-0.9,4.1-2.1,7.2-3.6c3.1-1.5,6.2-3,9.4-4.5c3.2-1.5,6.2-3,8.9-4.4C161.2,99.9,163.2,98.8,164.5,98z
		 M168.4,118.9c-0.3-1.5-0.5-3.2-0.8-5c-0.3-1.8-0.5-3.5-0.8-5.1s-0.5-3-0.7-4.2c-0.2-1.2-0.4-1.9-0.5-2.3c-1.4,0.5-3.1,1.2-4.9,1.9
		c-1.8,0.7-3.6,1.5-5.4,2.4c-1.8,0.9-3.5,1.7-5.1,2.6c-1.6,0.9-3,1.6-4,2.4c-2.1,1.3-3.6,2.7-4.7,4c-1.1,1.3-1.6,3-1.6,4.9
		c0,2.6,0.8,4.9,2.3,6.9c1.5,2,3.9,3,7.2,3c1.7,0,3.5-0.3,5.3-0.9c1.8-0.6,3.6-1.4,5.1-2.2c1.6-0.8,2.9-1.6,4.1-2.4
		c1.2-0.8,2-1.4,2.4-1.9c0.7-0.7,1.3-1.3,1.7-1.8C168.3,120.5,168.5,119.8,168.4,118.9z"/>
	<path d="M241.1,141.8c-1.5-0.3-3.2-1.3-4.9-3.2c-1.8-1.9-3.5-4.1-5.1-6.7c-1.7-2.6-3.2-5.2-4.5-8c-1.3-2.8-2.3-5.2-2.9-7.2
		c-0.5,0.8-1.6,2.1-3,4c-1.5,1.8-3.2,3.8-5.1,5.9c-1.9,2.1-3.8,4.2-5.9,6.3c-2,2.1-3.8,3.8-5.2,5.2c-2.2,2.2-4.4,4.5-6.7,6.7
		c-2.3,2.2-8.7,8.3-11,10c-2.3,1.8-4.5,3.2-6.5,4.3c-2.1,1.1-3.9,1.6-5.5,1.6c-1.1,0-1.9-0.2-2.5-0.5c-0.6-0.3-1-0.6-1.3-0.7
		c0.4-0.5,0.9-1.4,1.6-2.8c0.7-1.4,1.5-3.1,2.4-5.1c0.9-1.9,1.7-4,2.6-6.2c0.9-2.2,1.6-4.3,2.1-6.4c0.3-0.3,0.5-0.4,0.7-0.4
		c0.3,0,0.5,0.4,0.5,1.3c0.1,0.9,0.3,1.8,0.5,2.8c0.3,1,0.7,2,1.4,2.8c0.7,0.9,1.7,1.3,3.2,1.3c2.3,0,9-5.1,11.9-7.4
		c2.9-2.2,5.8-5.1,8.8-8.4c2.9-3.4,5.7-7.1,8.4-11.1c2.7-4,4.9-7.8,6.7-11.3c-0.7-2.7-1.8-5.5-3.4-8.4c-1.5-2.9-3.3-5.6-5.3-8.1
		c-2-2.5-4.3-4.5-6.7-6.1c-2.4-1.6-4.9-2.4-7.4-2.4c-0.7,0-1.4,0.3-2.2,0.8c-0.7,0.5-1.5,0.9-2.4,1.2c-0.6,0-0.9-0.4-0.9-1.2
		c0-0.3,0.9-1,2.8-2.2c1.8-1.2,4-2.5,6.4-3.8c2.4-1.3,4.8-2.5,7.1-3.6c2.3-1,3.9-1.6,4.9-1.6c2.2,0,4.3,0.6,6,1.8
		c1.8,1.2,3.3,2.8,4.7,4.8c1.4,2,2.6,4.2,3.6,6.5c1,2.4,1.8,4.8,2.4,7.2c1.7-2.5,3.6-5,5.8-7.6c2.2-2.5,8.4-9.8,10.8-11.7
		c2.4-2,4.9-3.6,7.4-4.8s5.1-1.8,7.5-1.8c1.5,0,2.8,0.1,3.8,0.3c1,0.2,1.9,0.7,2.6,1.6c-0.1,0.5-0.5,1.6-1.3,3.4
		c-0.8,1.8-1.6,3.7-2.6,5.7c-0.9,2-1.8,3.8-2.6,5.5c-0.8,1.6-1.3,2.4-1.6,2.4c-0.5,0-1.1-0.3-1.8-0.9c-0.6-0.6-1.3-1.2-2.2-1.9
		c-0.8-0.7-1.8-1.3-2.9-1.9c-1.1-0.6-2.5-0.9-4.1-0.9c-3.2,0-9.8,6.3-11.9,9c-2.1,2.7-3.5,6.7-4.3,12c0.3,2.6,1,5.4,2.2,8.4
		c1.2,3,2.6,5.7,4.3,8.2c1.7,2.5,3.6,4.6,5.7,6.3c2.1,1.7,4.3,2.6,6.4,2.6c3.1,0,5.7-0.6,7.7-1.7c2-1.1,3.6-2.3,5-3.6
		c0.1-0.1,0.3-0.1,0.5-0.1c0.5,0,0.8,0.4,0.8,1.1c0,0.5-0.3,1-0.9,1.6c-0.6,0.6-1.4,1.3-2.4,2c-0.9,0.7-1.9,1.4-3,2.1
		c-1,0.7-2,1.4-2.9,2.2c-2.5,2.1-5.2,4.1-8.2,6.2C246.5,139.2,243.7,140.8,241.1,141.8z"/>
</g>
<text transform="matrix(1 0 0 1 19.0973 139.9982)" class="st0 st1 st2">wax</text>
<g transform="translate(0,-952.36218)">
	<path class="st3" d="M158.1,960.6c-0.8,0.1-1.3,0.7-1.2,1.5c0,0.1,0,0.1,0,0.2c1.9,5.8,0,10.8-3.3,15.8c-3.2,5.1-7.7,10-10.4,15.6
		c-2.3,4.9-2,10.7,1,15.5c3,4.7,8.7,8.3,16.8,8.9c0,0,0.1,0,0.1,0c9.5,0.1,16-3.4,19.6-8.7c3.6-5.2,4.4-12.1,3.2-18.8c0,0,0,0,0,0
		c-2-10.2-10.4-21.2-24.9-29.8c-0.2-0.1-0.5-0.2-0.8-0.2C158.2,960.6,158.1,960.6,158.1,960.6L158.1,960.6z M161.1,990.9
		c0.2,0,0.3,0,0.5,0c2.6,0,4.8,1.5,6.2,3.6c1.5,2.1,2.3,4.9,2.3,8c0,3.1-0.8,5.9-2.3,8c-1.5,2.1-3.6,3.7-6.2,3.7
		c-2.6,0-4.7-1.5-6.2-3.7c-1.5-2.1-2.3-4.9-2.3-8c0-3.1,0.8-5.9,2.3-8C156.7,992.5,158.7,991,161.1,990.9z"/>
</g>
<g>
	<path d="M276.3,48.4h12.5V130h41.4v9.9h-53.9V48.4z"/>
</g>
<g>
	<path d="M352.3,63.1v76.8h-9.8V63.1H352.3z"/>
	<path d="M383.9,71.6h-23.1v-8.4h56.3v8.4h-23.2v68.3h-9.9V71.6z"/>
</g>
</svg>
